<svg xmlns="http://www.w3.org/2000/svg" xmlns:xlink="http://www.w3.org/1999/xlink" width="64" zoomAndPan="magnify" viewBox="0 0 48 48" height="64" preserveAspectRatio="xMidYMid meet" version="1.2"><defs><clipPath id="d461e1a894"><path d="M 2.398438 0.351562 L 47.15625 0.351562 L 47.15625 45.109375 L 2.398438 45.109375 Z M 2.398438 0.351562 "/></clipPath><clipPath id="82cfe3eaa0"><path d="M 24.777344 0.351562 C 12.417969 0.351562 2.398438 10.371094 2.398438 22.730469 C 2.398438 35.089844 12.417969 45.109375 24.777344 45.109375 C 37.136719 45.109375 47.15625 35.089844 47.15625 22.730469 C 47.15625 10.371094 37.136719 0.351562 24.777344 0.351562 Z M 24.777344 0.351562 "/></clipPath><clipPath id="0364281ccd"><path d="M 14 25 L 46.320312 25 L 46.320312 45 L 14 45 Z M 14 25 "/></clipPath><clipPath id="5a6f467a20"><path d="M 1.503906 0 L 43 0 L 43 47 L 1.503906 47 Z M 1.503906 0 "/></clipPath></defs><g id="3a13b1b6b6"><g clip-rule="nonzero" clip-path="url(#d461e1a894)"><g clip-rule="nonzero" clip-path="url(#82cfe3eaa0)"><path style=" stroke:none;fill-rule:nonzero;fill:#e1e1e1;fill-opacity:1;" d="M 2.398438 0.351562 L 47.15625 0.351562 L 47.15625 45.109375 L 2.398438 45.109375 Z M 2.398438 0.351562 "/></g></g><g clip-rule="nonzero" clip-path="url(#0364281ccd)"><path style=" stroke:none;fill-rule:nonzero;fill:#00c2cb;fill-opacity:1;" d="M 37.785156 36.65625 C 39.1875 34.207031 39.988281 31.371094 39.988281 28.34375 C 39.988281 27.34375 39.898438 26.367188 39.730469 25.414062 C 39.054688 29.1875 37.046875 32.5 34.214844 34.851562 C 32.574219 36.210938 30.132812 35.933594 28.851562 34.234375 L 26.457031 31.0625 C 26.058594 30.535156 25.433594 30.222656 24.773438 30.222656 L 15.648438 30.222656 C 15.648438 30.222656 15.644531 30.222656 15.644531 30.222656 C 15.019531 30.226562 14.617188 30.886719 14.898438 31.441406 L 15.261719 32.164062 C 15.933594 33.511719 17.265625 34.40625 18.765625 34.523438 L 19.304688 34.566406 L 21.671875 34.75 C 22.339844 34.804688 22.945312 35.175781 23.296875 35.75 L 24.367188 37.503906 L 24.96875 38.484375 L 28.335938 43.992188 C 28.394531 44.089844 28.46875 44.175781 28.554688 44.246094 C 28.800781 44.453125 29.136719 44.539062 29.460938 44.460938 C 29.464844 44.457031 29.464844 44.457031 29.46875 44.457031 C 38.199219 42.304688 44.925781 35.0625 46.320312 26.054688 C 45.09375 30.675781 41.949219 34.511719 37.785156 36.65625 "/></g><g clip-rule="nonzero" clip-path="url(#5a6f467a20)"><path style=" stroke:none;fill-rule:nonzero;fill:#003479;fill-opacity:1;" d="M 22.652344 36.140625 C 22.429688 35.777344 22.039062 35.539062 21.613281 35.503906 L 18.707031 35.273438 C 16.953125 35.136719 15.375 34.074219 14.585938 32.503906 L 14.242188 31.820312 C 13.996094 31.332031 13.992188 30.75 14.261719 30.277344 C 14.539062 29.789062 15.042969 29.488281 15.597656 29.46875 L 18.570312 29.46875 C 17.617188 27.964844 15.902344 27.121094 14.125 27.285156 L 11.089844 27.570312 C 9.789062 27.691406 8.621094 26.792969 8.382812 25.511719 C 8.203125 24.558594 8.113281 23.578125 8.113281 22.574219 C 8.113281 17.488281 10.492188 12.960938 14.203125 10.042969 C 10.527344 12.460938 7.667969 16.015625 6.125 20.210938 C 7.515625 10.109375 16.179688 2.328125 26.660156 2.328125 C 33.152344 2.328125 38.941406 5.3125 42.742188 9.976562 C 38.703125 3.996094 31.867188 0.0546875 24.109375 0.0351562 C 11.691406 0.00390625 1.527344 10.121094 1.507812 22.539062 C 1.503906 26.914062 2.742188 30.992188 4.890625 34.453125 C 4.9375 34.523438 4.980469 34.597656 5.027344 34.671875 L 8.035156 34.160156 C 9.378906 33.933594 10.484375 35.230469 10.027344 36.515625 C 10.015625 36.550781 10.007812 36.570312 10.007812 36.570312 C 11.945312 37.277344 11.617188 39.164062 11.617188 39.164062 C 13.328125 39.941406 12.625 41.550781 12.625 41.550781 C 13.230469 41.800781 13.441406 42.292969 13.496094 42.453125 C 13.523438 42.53125 13.554688 42.613281 13.585938 42.695312 L 14.757812 45.695312 C 14.957031 46.210938 15.574219 46.632812 16.128906 46.632812 C 16.828125 46.632812 17.3125 45.9375 17.066406 45.28125 L 16.519531 43.824219 L 15.789062 41.878906 C 15.738281 41.746094 15.832031 41.59375 15.976562 41.585938 C 16.074219 41.578125 16.164062 41.640625 16.199219 41.730469 L 17.160156 44.039062 L 17.871094 45.75 C 18.113281 46.339844 18.761719 46.679688 19.371094 46.5 C 20.105469 46.285156 20.472656 45.464844 20.140625 44.777344 C 20.140625 44.777344 20.140625 44.773438 20.140625 44.773438 L 18.382812 41.144531 C 18.304688 40.988281 18.410156 40.804688 18.582031 40.789062 C 18.679688 40.777344 18.777344 40.828125 18.824219 40.917969 L 20.960938 44.902344 L 21.226562 45.398438 C 21.488281 45.886719 22.0625 46.140625 22.585938 45.964844 C 22.996094 45.828125 23.265625 45.488281 23.339844 45.101562 C 23.382812 44.867188 23.351562 44.613281 23.234375 44.382812 L 21.558594 41.140625 C 21.484375 40.996094 21.539062 40.8125 21.6875 40.753906 C 21.820312 40.699219 21.96875 40.753906 22.03125 40.875 L 23.921875 44.449219 C 24.074219 44.738281 24.304688 44.960938 24.570312 45.109375 C 25.011719 45.355469 25.5625 45.390625 26.054688 45.15625 C 26.148438 45.113281 26.234375 45.058594 26.316406 45 C 26.984375 44.515625 27.195312 43.578125 26.746094 42.839844 L 22.652344 36.140625 "/></g><path style=" stroke:none;fill-rule:nonzero;fill:#00c2cb;fill-opacity:1;" d="M 6.300781 37.496094 L 8.667969 37.105469 C 9.378906 36.984375 9.859375 36.316406 9.738281 35.605469 C 9.621094 34.894531 8.949219 34.414062 8.242188 34.53125 L 5.875 34.925781 C 5.164062 35.042969 4.683594 35.714844 4.800781 36.425781 C 4.917969 37.132812 5.589844 37.613281 6.300781 37.496094 "/><path style=" stroke:none;fill-rule:nonzero;fill:#00c2cb;fill-opacity:1;" d="M 10.949219 38.171875 C 10.828125 37.460938 10.160156 36.980469 9.449219 37.097656 L 6.21875 37.714844 C 5.507812 37.832031 5.027344 38.503906 5.144531 39.214844 C 5.261719 39.925781 5.933594 40.40625 6.644531 40.289062 L 9.875 39.667969 C 10.585938 39.550781 11.066406 38.878906 10.949219 38.171875 "/><path style=" stroke:none;fill-rule:nonzero;fill:#00c2cb;fill-opacity:1;" d="M 12.039062 40.855469 C 11.917969 40.144531 11.25 39.664062 10.539062 39.78125 L 8.171875 40.171875 C 7.460938 40.292969 6.980469 40.964844 7.097656 41.671875 C 7.21875 42.382812 7.886719 42.863281 8.597656 42.746094 L 10.964844 42.351562 C 11.675781 42.234375 12.15625 41.5625 12.039062 40.855469 "/><path style=" stroke:none;fill-rule:nonzero;fill:#00c2cb;fill-opacity:1;" d="M 12.183594 42.296875 L 10.238281 42.605469 C 9.527344 42.722656 9.046875 43.394531 9.164062 44.105469 C 9.285156 44.816406 9.953125 45.296875 10.664062 45.179688 L 12.609375 44.867188 C 13.320312 44.75 13.796875 44.078125 13.679688 43.371094 C 13.5625 42.660156 12.890625 42.179688 12.183594 42.296875 "/></g></svg>