<svg xmlns="http://www.w3.org/2000/svg" xmlns:xlink="http://www.w3.org/1999/xlink" width="128" zoomAndPan="magnify" viewBox="0 0 96 48" height="64" preserveAspectRatio="xMidYMid meet" version="1.0"><defs><g/><clipPath id="7a76552b68"><path d="M 42 25 L 69.746094 25 L 69.746094 42 L 42 42 Z M 42 25 " clip-rule="nonzero"/></clipPath><clipPath id="66fd763dfa"><path d="M 30.808594 3.335938 L 67 3.335938 L 67 43.746094 L 30.808594 43.746094 Z M 30.808594 3.335938 " clip-rule="nonzero"/></clipPath></defs><g clip-path="url(#7a76552b68)"><path fill="#00c2cb" d="M 62.164062 35.015625 C 63.375 32.898438 64.066406 30.445312 64.066406 27.832031 C 64.066406 26.96875 63.992188 26.121094 63.847656 25.300781 C 63.261719 28.5625 61.527344 31.425781 59.078125 33.453125 C 57.660156 34.628906 55.550781 34.390625 54.441406 32.921875 L 52.371094 30.179688 C 52.027344 29.722656 51.488281 29.457031 50.917969 29.457031 L 43.03125 29.457031 C 43.03125 29.457031 43.03125 29.457031 43.027344 29.457031 C 42.488281 29.460938 42.140625 30.027344 42.382812 30.507812 L 42.695312 31.132812 C 43.28125 32.296875 44.429688 33.070312 45.726562 33.171875 L 46.191406 33.207031 L 48.238281 33.367188 C 48.816406 33.414062 49.339844 33.734375 49.640625 34.230469 L 50.570312 35.746094 L 51.089844 36.597656 L 53.996094 41.355469 C 54.046875 41.4375 54.113281 41.511719 54.1875 41.574219 C 54.402344 41.753906 54.691406 41.828125 54.96875 41.757812 C 54.972656 41.757812 54.972656 41.757812 54.976562 41.757812 C 62.519531 39.894531 68.335938 33.636719 69.539062 25.855469 C 68.480469 29.847656 65.761719 33.164062 62.164062 35.015625 " fill-opacity="1" fill-rule="nonzero"/></g><g clip-path="url(#66fd763dfa)"><path fill="#003479" d="M 49.085938 34.570312 C 48.890625 34.253906 48.554688 34.046875 48.1875 34.019531 L 45.675781 33.820312 C 44.160156 33.703125 42.796875 32.785156 42.113281 31.425781 L 41.816406 30.835938 C 41.605469 30.414062 41.601562 29.910156 41.832031 29.5 C 42.074219 29.078125 42.507812 28.820312 42.988281 28.804688 L 45.558594 28.804688 C 44.734375 27.503906 43.25 26.773438 41.714844 26.917969 L 39.09375 27.160156 C 37.96875 27.265625 36.960938 26.492188 36.753906 25.382812 C 36.597656 24.5625 36.519531 23.710938 36.519531 22.84375 C 36.519531 18.449219 38.578125 14.535156 41.78125 12.015625 C 38.605469 14.105469 36.136719 17.179688 34.800781 20.800781 C 36.003906 12.074219 43.492188 5.347656 52.550781 5.347656 C 58.160156 5.347656 63.164062 7.925781 66.449219 11.957031 C 62.957031 6.789062 57.050781 3.382812 50.34375 3.367188 C 39.613281 3.335938 30.828125 12.082031 30.8125 22.816406 C 30.808594 26.59375 31.878906 30.121094 33.734375 33.109375 C 33.773438 33.171875 33.8125 33.234375 33.851562 33.300781 L 36.453125 32.859375 C 37.613281 32.660156 38.570312 33.785156 38.175781 34.894531 C 38.164062 34.925781 38.15625 34.941406 38.15625 34.941406 C 39.832031 35.550781 39.550781 37.179688 39.550781 37.179688 C 41.027344 37.855469 40.417969 39.246094 40.417969 39.246094 C 40.941406 39.460938 41.125 39.886719 41.171875 40.023438 C 41.195312 40.09375 41.222656 40.164062 41.25 40.234375 L 42.261719 42.828125 C 42.433594 43.273438 42.96875 43.640625 43.449219 43.640625 C 44.050781 43.640625 44.46875 43.035156 44.257812 42.46875 L 43.785156 41.210938 L 43.152344 39.53125 C 43.109375 39.414062 43.191406 39.285156 43.316406 39.273438 C 43.402344 39.269531 43.476562 39.324219 43.507812 39.398438 L 44.339844 41.398438 L 44.953125 42.875 C 45.164062 43.382812 45.722656 43.675781 46.25 43.523438 C 46.886719 43.335938 47.199219 42.625 46.914062 42.03125 L 45.394531 38.894531 C 45.328125 38.757812 45.417969 38.601562 45.566406 38.585938 C 45.652344 38.578125 45.734375 38.621094 45.777344 38.699219 L 47.625 42.144531 L 47.855469 42.570312 C 48.082031 42.992188 48.574219 43.210938 49.027344 43.058594 C 49.382812 42.945312 49.617188 42.648438 49.679688 42.316406 C 49.71875 42.109375 49.691406 41.894531 49.585938 41.691406 L 48.140625 38.890625 C 48.078125 38.765625 48.125 38.609375 48.253906 38.554688 C 48.367188 38.507812 48.492188 38.558594 48.550781 38.660156 L 50.183594 41.75 C 50.316406 42 50.511719 42.191406 50.742188 42.320312 C 51.125 42.53125 51.601562 42.5625 52.023438 42.363281 C 52.105469 42.324219 52.179688 42.277344 52.25 42.226562 C 52.832031 41.804688 53.011719 40.996094 52.625 40.359375 L 49.085938 34.570312 " fill-opacity="1" fill-rule="nonzero"/></g><path fill="#00c2cb" d="M 34.953125 35.742188 L 37 35.402344 C 37.613281 35.300781 38.027344 34.71875 37.925781 34.105469 C 37.824219 33.492188 37.242188 33.078125 36.628906 33.179688 L 34.585938 33.519531 C 33.972656 33.621094 33.554688 34.199219 33.65625 34.8125 C 33.761719 35.429688 34.339844 35.84375 34.953125 35.742188 " fill-opacity="1" fill-rule="nonzero"/><path fill="#00c2cb" d="M 38.96875 36.324219 C 38.867188 35.710938 38.289062 35.296875 37.671875 35.398438 L 34.882812 35.929688 C 34.269531 36.03125 33.851562 36.613281 33.957031 37.226562 C 34.058594 37.839844 34.636719 38.253906 35.25 38.152344 L 38.042969 37.621094 C 38.65625 37.519531 39.070312 36.9375 38.96875 36.324219 " fill-opacity="1" fill-rule="nonzero"/><path fill="#00c2cb" d="M 39.910156 38.644531 C 39.808594 38.027344 39.230469 37.613281 38.617188 37.714844 L 36.570312 38.054688 C 35.957031 38.15625 35.542969 38.738281 35.644531 39.351562 C 35.746094 39.964844 36.324219 40.378906 36.9375 40.277344 L 38.984375 39.9375 C 39.597656 39.835938 40.011719 39.257812 39.910156 38.644531 " fill-opacity="1" fill-rule="nonzero"/><path fill="#00c2cb" d="M 40.035156 39.890625 L 38.355469 40.15625 C 37.742188 40.257812 37.328125 40.839844 37.429688 41.453125 C 37.53125 42.066406 38.113281 42.480469 38.726562 42.378906 L 40.40625 42.113281 C 41.019531 42.011719 41.433594 41.429688 41.332031 40.816406 C 41.230469 40.203125 40.648438 39.789062 40.035156 39.890625 " fill-opacity="1" fill-rule="nonzero"/><g fill="#003479" fill-opacity="1"><g transform="translate(4.38213, 23.715792)"><g><path d="M 1.765625 -5.6875 L 1.765625 -0.125 C 1.765625 -0.0390625 1.722656 0 1.640625 0 L 0.8125 0 C 0.726562 0 0.6875 -0.0390625 0.6875 -0.125 L 0.6875 -5.6875 C 0.6875 -5.769531 0.726562 -5.8125 0.8125 -5.8125 L 1.640625 -5.8125 C 1.722656 -5.8125 1.765625 -5.769531 1.765625 -5.6875 Z M 1.765625 -5.6875 "/></g></g></g><g fill="#003479" fill-opacity="1"><g transform="translate(8.428964, 23.715792)"><g><path d="M 0.21875 -5.03125 L 0.21875 -5.640625 C 0.21875 -5.753906 0.273438 -5.8125 0.390625 -5.8125 L 4.375 -5.8125 C 4.425781 -5.8125 4.460938 -5.796875 4.484375 -5.765625 C 4.515625 -5.734375 4.53125 -5.691406 4.53125 -5.640625 L 4.53125 -5.03125 C 4.53125 -4.914062 4.476562 -4.859375 4.375 -4.859375 L 2.921875 -4.859375 L 2.921875 -0.171875 C 2.921875 -0.0546875 2.863281 0 2.75 0 L 2 0 C 1.894531 0 1.84375 -0.0546875 1.84375 -0.171875 L 1.84375 -4.859375 L 0.390625 -4.859375 C 0.335938 -4.859375 0.296875 -4.875 0.265625 -4.90625 C 0.234375 -4.9375 0.21875 -4.976562 0.21875 -5.03125 Z M 0.21875 -5.03125 "/></g></g></g><g fill="#003479" fill-opacity="1"><g transform="translate(14.774515, 23.715792)"><g><path d="M 2.625 0.09375 C 2.40625 0.09375 2.1875 0.0664062 1.96875 0.015625 C 1.75 -0.0234375 1.539062 -0.0859375 1.34375 -0.171875 C 1.15625 -0.265625 0.976562 -0.367188 0.8125 -0.484375 C 0.65625 -0.609375 0.523438 -0.738281 0.421875 -0.875 C 0.390625 -0.914062 0.375 -0.957031 0.375 -1 C 0.382812 -1.039062 0.410156 -1.082031 0.453125 -1.125 L 0.953125 -1.625 C 0.992188 -1.65625 1.035156 -1.664062 1.078125 -1.65625 C 1.117188 -1.65625 1.164062 -1.632812 1.21875 -1.59375 C 1.332031 -1.46875 1.460938 -1.351562 1.609375 -1.25 C 1.753906 -1.15625 1.910156 -1.078125 2.078125 -1.015625 C 2.253906 -0.960938 2.421875 -0.9375 2.578125 -0.9375 C 2.898438 -0.9375 3.148438 -1 3.328125 -1.125 C 3.503906 -1.257812 3.59375 -1.4375 3.59375 -1.65625 C 3.59375 -1.789062 3.539062 -1.90625 3.4375 -2 C 3.34375 -2.101562 3.207031 -2.195312 3.03125 -2.28125 C 2.851562 -2.363281 2.628906 -2.445312 2.359375 -2.53125 C 2.085938 -2.625 1.84375 -2.722656 1.625 -2.828125 C 1.414062 -2.929688 1.234375 -3.046875 1.078125 -3.171875 C 0.929688 -3.304688 0.816406 -3.460938 0.734375 -3.640625 C 0.660156 -3.816406 0.625 -4.023438 0.625 -4.265625 C 0.625 -4.585938 0.703125 -4.867188 0.859375 -5.109375 C 1.023438 -5.359375 1.253906 -5.550781 1.546875 -5.6875 C 1.847656 -5.820312 2.203125 -5.890625 2.609375 -5.890625 C 2.828125 -5.890625 3.039062 -5.863281 3.25 -5.8125 C 3.457031 -5.757812 3.648438 -5.679688 3.828125 -5.578125 C 4.003906 -5.484375 4.148438 -5.367188 4.265625 -5.234375 C 4.304688 -5.191406 4.328125 -5.144531 4.328125 -5.09375 C 4.328125 -5.039062 4.304688 -4.992188 4.265625 -4.953125 L 3.875 -4.5 C 3.820312 -4.4375 3.765625 -4.40625 3.703125 -4.40625 C 3.648438 -4.414062 3.597656 -4.441406 3.546875 -4.484375 C 3.410156 -4.597656 3.253906 -4.6875 3.078125 -4.75 C 2.898438 -4.820312 2.726562 -4.859375 2.5625 -4.859375 C 2.28125 -4.859375 2.0625 -4.800781 1.90625 -4.6875 C 1.757812 -4.570312 1.6875 -4.425781 1.6875 -4.25 C 1.6875 -4.101562 1.738281 -3.976562 1.84375 -3.875 C 1.957031 -3.769531 2.109375 -3.675781 2.296875 -3.59375 C 2.484375 -3.507812 2.6875 -3.429688 2.90625 -3.359375 C 3.144531 -3.285156 3.367188 -3.203125 3.578125 -3.109375 C 3.796875 -3.023438 3.988281 -2.921875 4.15625 -2.796875 C 4.320312 -2.671875 4.453125 -2.515625 4.546875 -2.328125 C 4.648438 -2.148438 4.703125 -1.929688 4.703125 -1.671875 C 4.703125 -1.398438 4.648438 -1.15625 4.546875 -0.9375 C 4.453125 -0.71875 4.3125 -0.53125 4.125 -0.375 C 3.9375 -0.226562 3.710938 -0.113281 3.453125 -0.03125 C 3.203125 0.0507812 2.925781 0.09375 2.625 0.09375 Z M 2.625 0.09375 "/></g></g></g><g fill="#003479" fill-opacity="1"><g transform="translate(21.429364, 23.715792)"><g><path d="M 5.625 -0.1875 C 5.644531 -0.132812 5.644531 -0.0859375 5.625 -0.046875 C 5.601562 -0.015625 5.5625 0 5.5 0 L 4.671875 0 C 4.628906 0 4.585938 -0.0078125 4.546875 -0.03125 C 4.515625 -0.0625 4.492188 -0.0976562 4.484375 -0.140625 L 4.25 -0.703125 L 1.578125 -0.703125 L 1.34375 -0.140625 C 1.320312 -0.0976562 1.296875 -0.0625 1.265625 -0.03125 C 1.234375 -0.0078125 1.191406 0 1.140625 0 L 0.328125 0 C 0.265625 0 0.21875 -0.015625 0.1875 -0.046875 C 0.164062 -0.0859375 0.171875 -0.132812 0.203125 -0.1875 L 2.671875 -5.734375 C 2.691406 -5.773438 2.722656 -5.804688 2.765625 -5.828125 C 2.804688 -5.859375 2.84375 -5.875 2.875 -5.875 L 2.9375 -5.875 C 2.976562 -5.875 3.015625 -5.859375 3.046875 -5.828125 C 3.085938 -5.804688 3.117188 -5.773438 3.140625 -5.734375 Z M 1.953125 -1.625 L 3.859375 -1.625 L 2.90625 -3.9375 Z M 1.953125 -1.625 "/></g></g></g><g fill="#545454" fill-opacity="1"><g transform="translate(43.597043, 22.908868)"><g><path d="M 0.21875 -1.8125 C 0.21875 -2.03125 0.25 -2.234375 0.3125 -2.421875 C 0.375 -2.609375 0.460938 -2.78125 0.578125 -2.9375 C 0.691406 -3.09375 0.828125 -3.226562 0.984375 -3.34375 C 1.140625 -3.457031 1.3125 -3.546875 1.5 -3.609375 C 1.695312 -3.671875 1.898438 -3.703125 2.109375 -3.703125 C 2.316406 -3.703125 2.515625 -3.671875 2.703125 -3.609375 C 2.898438 -3.546875 3.078125 -3.457031 3.234375 -3.34375 C 3.390625 -3.226562 3.523438 -3.09375 3.640625 -2.9375 C 3.753906 -2.78125 3.84375 -2.609375 3.90625 -2.421875 C 3.96875 -2.234375 4 -2.03125 4 -1.8125 C 4 -1.601562 3.96875 -1.40625 3.90625 -1.21875 C 3.84375 -1.03125 3.753906 -0.859375 3.640625 -0.703125 C 3.523438 -0.546875 3.390625 -0.410156 3.234375 -0.296875 C 3.078125 -0.179688 2.898438 -0.09375 2.703125 -0.03125 C 2.515625 0.03125 2.316406 0.0625 2.109375 0.0625 C 1.898438 0.0625 1.695312 0.03125 1.5 -0.03125 C 1.3125 -0.09375 1.140625 -0.179688 0.984375 -0.296875 C 0.828125 -0.410156 0.691406 -0.546875 0.578125 -0.703125 C 0.460938 -0.859375 0.375 -1.03125 0.3125 -1.21875 C 0.25 -1.40625 0.21875 -1.601562 0.21875 -1.8125 Z M 0.890625 -1.8125 C 0.890625 -1.644531 0.921875 -1.488281 0.984375 -1.34375 C 1.046875 -1.195312 1.128906 -1.066406 1.234375 -0.953125 C 1.347656 -0.847656 1.476562 -0.765625 1.625 -0.703125 C 1.78125 -0.648438 1.941406 -0.625 2.109375 -0.625 C 2.285156 -0.625 2.445312 -0.648438 2.59375 -0.703125 C 2.738281 -0.765625 2.863281 -0.847656 2.96875 -0.953125 C 3.082031 -1.066406 3.171875 -1.195312 3.234375 -1.34375 C 3.296875 -1.488281 3.328125 -1.644531 3.328125 -1.8125 C 3.328125 -1.988281 3.296875 -2.148438 3.234375 -2.296875 C 3.171875 -2.441406 3.082031 -2.566406 2.96875 -2.671875 C 2.863281 -2.785156 2.734375 -2.875 2.578125 -2.9375 C 2.429688 -3 2.273438 -3.03125 2.109375 -3.03125 C 1.941406 -3.03125 1.78125 -3 1.625 -2.9375 C 1.476562 -2.875 1.347656 -2.785156 1.234375 -2.671875 C 1.128906 -2.566406 1.046875 -2.441406 0.984375 -2.296875 C 0.921875 -2.148438 0.890625 -1.988281 0.890625 -1.8125 Z M 0.890625 -1.8125 "/></g></g></g><g fill="#545454" fill-opacity="1"><g transform="translate(51.758065, 22.908868)"><g><path d="M 3.609375 -3.65625 C 3.660156 -3.65625 3.6875 -3.628906 3.6875 -3.578125 L 3.6875 -0.0625 C 3.6875 -0.03125 3.675781 -0.00390625 3.65625 0.015625 C 3.632812 0.0351562 3.613281 0.046875 3.59375 0.046875 C 3.5625 0.046875 3.535156 0.0351562 3.515625 0.015625 C 3.492188 0.00390625 3.46875 -0.0078125 3.4375 -0.03125 L 1.109375 -2.25 L 1.109375 -0.078125 C 1.109375 -0.0234375 1.082031 0 1.03125 0 L 0.515625 0 C 0.460938 0 0.4375 -0.0234375 0.4375 -0.078125 L 0.4375 -3.59375 C 0.4375 -3.625 0.441406 -3.648438 0.453125 -3.671875 C 0.472656 -3.691406 0.5 -3.703125 0.53125 -3.703125 C 0.5625 -3.703125 0.582031 -3.691406 0.59375 -3.671875 C 0.613281 -3.648438 0.640625 -3.628906 0.671875 -3.609375 L 3.015625 -1.390625 L 3.015625 -3.578125 C 3.015625 -3.628906 3.039062 -3.65625 3.09375 -3.65625 Z M 3.609375 -3.65625 "/></g></g></g><g fill="#545454" fill-opacity="1"><g transform="translate(59.820521, 22.908868)"><g><path d="M 3.609375 -3.65625 C 3.660156 -3.65625 3.6875 -3.628906 3.6875 -3.578125 L 3.6875 -0.0625 C 3.6875 -0.03125 3.675781 -0.00390625 3.65625 0.015625 C 3.632812 0.0351562 3.613281 0.046875 3.59375 0.046875 C 3.5625 0.046875 3.535156 0.0351562 3.515625 0.015625 C 3.492188 0.00390625 3.46875 -0.0078125 3.4375 -0.03125 L 1.109375 -2.25 L 1.109375 -0.078125 C 1.109375 -0.0234375 1.082031 0 1.03125 0 L 0.515625 0 C 0.460938 0 0.4375 -0.0234375 0.4375 -0.078125 L 0.4375 -3.59375 C 0.4375 -3.625 0.441406 -3.648438 0.453125 -3.671875 C 0.472656 -3.691406 0.5 -3.703125 0.53125 -3.703125 C 0.5625 -3.703125 0.582031 -3.691406 0.59375 -3.671875 C 0.613281 -3.648438 0.640625 -3.628906 0.671875 -3.609375 L 3.015625 -1.390625 L 3.015625 -3.578125 C 3.015625 -3.628906 3.039062 -3.65625 3.09375 -3.65625 Z M 3.609375 -3.65625 "/></g></g></g><g fill="#545454" fill-opacity="1"><g transform="translate(67.882977, 22.908868)"><g><path d="M 3.078125 -0.640625 C 3.117188 -0.640625 3.148438 -0.628906 3.171875 -0.609375 C 3.203125 -0.585938 3.21875 -0.554688 3.21875 -0.515625 L 3.21875 -0.109375 C 3.21875 -0.078125 3.207031 -0.0507812 3.1875 -0.03125 C 3.175781 -0.0078125 3.148438 0 3.109375 0 L 0.546875 0 C 0.472656 0 0.4375 -0.0351562 0.4375 -0.109375 L 0.4375 -3.546875 C 0.4375 -3.617188 0.472656 -3.65625 0.546875 -3.65625 L 3.0625 -3.65625 C 3.09375 -3.65625 3.117188 -3.644531 3.140625 -3.625 C 3.160156 -3.601562 3.171875 -3.578125 3.171875 -3.546875 L 3.171875 -3.109375 C 3.171875 -3.035156 3.132812 -3 3.0625 -3 L 1.109375 -3 L 1.109375 -2 L 2.640625 -2 C 2.679688 -2 2.710938 -1.988281 2.734375 -1.96875 C 2.753906 -1.945312 2.765625 -1.921875 2.765625 -1.890625 L 2.765625 -1.484375 C 2.765625 -1.453125 2.753906 -1.425781 2.734375 -1.40625 C 2.710938 -1.382812 2.679688 -1.375 2.640625 -1.375 L 1.109375 -1.375 L 1.109375 -0.640625 Z M 3.078125 -0.640625 "/></g></g></g><g fill="#545454" fill-opacity="1"><g transform="translate(75.293936, 22.908868)"><g><path d="M 2.84375 -0.875 C 2.875 -0.894531 2.90625 -0.90625 2.9375 -0.90625 C 2.96875 -0.90625 2.992188 -0.894531 3.015625 -0.875 L 3.28125 -0.453125 C 3.289062 -0.429688 3.289062 -0.40625 3.28125 -0.375 C 3.28125 -0.351562 3.265625 -0.332031 3.234375 -0.3125 C 3.140625 -0.238281 3.03125 -0.171875 2.90625 -0.109375 C 2.78125 -0.0546875 2.648438 -0.015625 2.515625 0.015625 C 2.378906 0.046875 2.25 0.0625 2.125 0.0625 C 1.914062 0.0625 1.710938 0.03125 1.515625 -0.03125 C 1.328125 -0.09375 1.148438 -0.179688 0.984375 -0.296875 C 0.828125 -0.410156 0.691406 -0.546875 0.578125 -0.703125 C 0.460938 -0.859375 0.375 -1.03125 0.3125 -1.21875 C 0.25 -1.40625 0.21875 -1.609375 0.21875 -1.828125 C 0.21875 -2.035156 0.25 -2.234375 0.3125 -2.421875 C 0.375 -2.609375 0.460938 -2.78125 0.578125 -2.9375 C 0.691406 -3.09375 0.828125 -3.226562 0.984375 -3.34375 C 1.148438 -3.457031 1.328125 -3.546875 1.515625 -3.609375 C 1.710938 -3.671875 1.914062 -3.703125 2.125 -3.703125 C 2.25 -3.703125 2.378906 -3.6875 2.515625 -3.65625 C 2.648438 -3.625 2.78125 -3.578125 2.90625 -3.515625 C 3.03125 -3.460938 3.144531 -3.398438 3.25 -3.328125 C 3.28125 -3.304688 3.296875 -3.28125 3.296875 -3.25 C 3.296875 -3.226562 3.289062 -3.207031 3.28125 -3.1875 L 3.015625 -2.765625 C 2.992188 -2.742188 2.96875 -2.734375 2.9375 -2.734375 C 2.914062 -2.734375 2.890625 -2.742188 2.859375 -2.765625 C 2.753906 -2.847656 2.632812 -2.910156 2.5 -2.953125 C 2.375 -3.003906 2.25 -3.03125 2.125 -3.03125 C 1.957031 -3.03125 1.796875 -3 1.640625 -2.9375 C 1.492188 -2.875 1.363281 -2.785156 1.25 -2.671875 C 1.132812 -2.566406 1.046875 -2.441406 0.984375 -2.296875 C 0.921875 -2.148438 0.890625 -1.992188 0.890625 -1.828125 C 0.890625 -1.648438 0.921875 -1.488281 0.984375 -1.34375 C 1.054688 -1.195312 1.144531 -1.066406 1.25 -0.953125 C 1.363281 -0.847656 1.492188 -0.765625 1.640625 -0.703125 C 1.796875 -0.648438 1.957031 -0.625 2.125 -0.625 C 2.25 -0.625 2.375 -0.644531 2.5 -0.6875 C 2.632812 -0.726562 2.75 -0.789062 2.84375 -0.875 Z M 2.84375 -0.875 "/></g></g></g><g fill="#545454" fill-opacity="1"><g transform="translate(82.774613, 22.908868)"><g><path d="M 0.140625 -3.171875 L 0.140625 -3.546875 C 0.140625 -3.617188 0.175781 -3.65625 0.25 -3.65625 L 2.75 -3.65625 C 2.78125 -3.65625 2.804688 -3.644531 2.828125 -3.625 C 2.847656 -3.601562 2.859375 -3.578125 2.859375 -3.546875 L 2.859375 -3.171875 C 2.859375 -3.097656 2.820312 -3.0625 2.75 -3.0625 L 1.828125 -3.0625 L 1.828125 -0.109375 C 1.828125 -0.0351562 1.789062 0 1.71875 0 L 1.265625 0 C 1.191406 0 1.15625 -0.0351562 1.15625 -0.109375 L 1.15625 -3.0625 L 0.25 -3.0625 C 0.21875 -3.0625 0.191406 -3.066406 0.171875 -3.078125 C 0.148438 -3.097656 0.140625 -3.128906 0.140625 -3.171875 Z M 0.140625 -3.171875 "/></g></g></g></svg>